<svg width="30" height="30" viewBox="0 0 30 30" fill="none" xmlns="http://www.w3.org/2000/svg">
<path d="M15 5.96636e-08C23.2843 1.14601e-06 30 6.71573 30 15C30 23.2843 23.2843 30 15 30C6.71573 30 8.80661e-07 23.2843 1.96701e-06 15C3.05336e-06 6.71573 6.71573 -1.02669e-06 15 5.96636e-08Z" fill="#ECECEC"/>
<path d="M15 5.96636e-08C23.2843 1.14601e-06 30 6.71573 30 15C30 23.2843 23.2843 30 15 30C6.71573 30 8.80661e-07 23.2843 1.96701e-06 15C3.05336e-06 6.71573 6.71573 -1.02669e-06 15 5.96636e-08Z" stroke="black"/>
<path d="M14 10L19 15L14 20" stroke="#BBBBBB"/>
</svg>
