<svg width="40" height="40" viewBox="0 0 40 40" fill="none" xmlns="http://www.w3.org/2000/svg">
<g opacity="0.5">
<path d="M20 39.375C30.7005 39.375 39.375 30.7005 39.375 20C39.375 9.29948 30.7005 0.625 20 0.625C9.29948 0.625 0.625 9.29948 0.625 20C0.625 30.7005 9.29948 39.375 20 39.375Z" fill="#30BF39"/>
<path d="M25.8749 21.7509C25.6249 21.6259 24.3124 20.8759 24.0624 20.8134C23.8124 20.6884 23.6249 20.6884 23.4374 20.9384C23.2499 21.1884 22.6874 21.8134 22.5624 21.9384C22.3749 22.1259 22.2499 22.1259 21.9999 22.0009C21.7499 21.8759 20.8749 21.5634 19.8749 20.5634C19.1249 19.8134 18.5624 18.9384 18.4374 18.6259C18.3124 18.3759 18.4374 18.1884 18.5624 18.0634C18.6874 17.9384 18.8124 17.7509 18.9999 17.6259C19.1874 17.5009 19.1874 17.3759 19.3124 17.1884C19.4374 17.0009 19.3749 16.8759 19.3124 16.6884C19.2499 16.5009 18.7499 15.1884 18.5624 14.6259C18.3749 14.0634 18.1249 14.1884 17.9999 14.1259C17.8124 14.1259 17.6874 14.0634 17.4999 14.0634C17.2499 14.0634 16.9374 14.1884 16.7499 14.3759C16.4999 14.6259 15.7499 15.2509 15.7499 16.5634C15.7499 17.8759 16.6249 19.2509 16.7499 19.3759C16.8749 19.5634 18.4999 22.4384 21.1874 23.6259C23.8749 24.8134 23.8749 24.4384 24.3749 24.4384C24.8749 24.4384 25.9999 23.8134 26.2499 23.2509C26.4999 22.6259 26.4999 22.0634 26.4374 22.0009C26.3124 22.0009 26.1249 21.9384 25.8749 21.7509ZM20.8749 28.1884C19.1249 28.1884 17.4999 27.6884 16.0624 26.7509L12.6874 27.8134L13.8124 24.5634C12.7499 23.0634 12.1249 21.2509 12.1249 19.3759C12.1249 14.5009 16.0624 10.5634 20.9374 10.5634C25.8124 10.5634 29.6874 14.5009 29.6874 19.3759C29.6874 24.2509 25.7499 28.1884 20.8749 28.1884ZM20.8749 8.81335C15.0624 8.81335 10.3124 13.5634 10.3124 19.3759C10.3124 21.3134 10.8124 23.1884 11.8124 24.8134L9.87488 30.5009L15.7499 28.6259C17.3124 29.5009 19.0624 29.9384 20.8749 29.9384C26.6874 29.9384 31.4374 25.1884 31.4374 19.3759C31.4374 13.5634 26.7499 8.81335 20.8749 8.81335Z" fill="white"/>
</g>
</svg>
